<svg width="107" height="28" viewBox="0 0 107 28" fill="none" xmlns="http://www.w3.org/2000/svg">
<path d="M0 23.3396L9.39597 13.1919H0.300671V8.98255H15.447V13.0416L6.05101 23.1893H15.5973V27.3987H0V23.3396Z" fill="#0288D1"/>
<path d="M29.8698 25.4443H29.5691C28.9928 26.1459 28.2913 26.7472 27.4644 27.2483C26.6626 27.7494 25.6228 28 24.345 28C23.3928 28 22.4908 27.8371 21.6389 27.5114C20.8121 27.2107 20.0855 26.7848 19.4591 26.2336C18.8327 25.6823 18.3441 25.0183 17.9933 24.2416C17.6425 23.4649 17.4671 22.613 17.4671 21.6859C17.4671 20.7338 17.655 19.8819 18.0309 19.1302C18.4067 18.3535 18.9329 17.6895 19.6094 17.1383C20.2859 16.587 21.0752 16.1736 21.9772 15.898C22.9043 15.5973 23.9065 15.447 24.9839 15.447C26.1866 15.447 27.1763 15.5472 27.953 15.7477C28.7298 15.923 29.3687 16.111 29.8698 16.3114V15.7477C29.8698 14.7705 29.4814 13.9687 28.7047 13.3423C27.928 12.6908 26.9633 12.3651 25.8107 12.3651C24.1069 12.3651 22.6662 13.0792 21.4886 14.5074L17.9181 12.0644C19.8725 9.60895 22.5409 8.38121 25.9235 8.38121C28.7799 8.38121 30.9597 9.05772 32.4631 10.4107C33.9664 11.7387 34.7181 13.7181 34.7181 16.349V27.3987H29.8698V25.4443ZM29.8698 19.9195C29.2935 19.6438 28.6922 19.4309 28.0658 19.2805C27.4644 19.1051 26.8004 19.0175 26.0738 19.0175C24.8962 19.0175 23.9817 19.2805 23.3302 19.8067C22.7038 20.3078 22.3906 20.9342 22.3906 21.6859C22.3906 22.4376 22.6913 23.0389 23.2926 23.4899C23.919 23.9409 24.6331 24.1664 25.4349 24.1664C26.0864 24.1664 26.6877 24.0537 27.2389 23.8282C27.7902 23.5776 28.2537 23.2644 28.6295 22.8886C29.0304 22.4877 29.3311 22.0367 29.5315 21.5356C29.757 21.0094 29.8698 20.4707 29.8698 19.9195Z" fill="#0288D1"/>
<path d="M41.3763 6.31409C40.9504 6.31409 40.537 6.23893 40.1361 6.08859C39.7602 5.9132 39.422 5.6877 39.1213 5.41208C38.8457 5.11141 38.6202 4.77315 38.4448 4.39731C38.2945 4.02148 38.2193 3.60805 38.2193 3.15705C38.2193 2.70604 38.2945 2.29262 38.4448 1.91678C38.6202 1.54094 38.8457 1.21521 39.1213 0.939596C39.422 0.638926 39.7602 0.413423 40.1361 0.263086C40.537 0.0876954 40.9504 0 41.3763 0C42.2533 0 43.005 0.313199 43.6314 0.939596C44.2578 1.54094 44.571 2.28009 44.571 3.15705C44.571 4.034 44.2578 4.78568 43.6314 5.41208C43.005 6.01342 42.2533 6.31409 41.3763 6.31409ZM38.9334 27.3987V8.98255H43.8569V27.3987H38.9334Z" fill="#0288D1"/>
<path d="M52.9818 11.3879H53.2825C53.8588 10.4608 54.6355 9.73423 55.6127 9.20805C56.5899 8.65682 57.7049 8.38121 58.9577 8.38121C60.1102 8.38121 61.125 8.56913 62.002 8.94497C62.8789 9.32081 63.593 9.85951 64.1442 10.5611C64.7205 11.2376 65.1465 12.0644 65.4221 13.0416C65.7228 13.9937 65.8731 15.0586 65.8731 16.2362V27.3987H60.9496V16.8376C60.9496 15.5096 60.6489 14.5324 60.0476 13.906C59.4713 13.2546 58.6194 12.9289 57.4919 12.9289C56.8154 12.9289 56.2141 13.0792 55.6879 13.3799C55.1868 13.6555 54.7483 14.0438 54.3724 14.545C54.0217 15.021 53.746 15.5973 53.5456 16.2738C53.3702 16.9253 53.2825 17.6268 53.2825 18.3785V27.3987H48.359V8.98255H52.9818V11.3879Z" fill="#0288D1"/>
<path d="M69.0384 23.3396L78.4343 13.1919H69.339V8.98255H84.4854V13.0416L75.0894 23.1893H84.6357V27.3987H69.0384V23.3396Z" fill="#0288D1"/>
<path d="M96.2773 8.38121C97.7055 8.38121 99.0084 8.63177 100.186 9.13289C101.389 9.60895 102.416 10.2855 103.268 11.1624C104.145 12.0143 104.821 13.0416 105.297 14.2443C105.799 15.447 106.049 16.7624 106.049 18.1906C106.049 19.6188 105.799 20.9342 105.297 22.1369C104.821 23.3396 104.145 24.3794 103.268 25.2564C102.416 26.1083 101.389 26.7848 100.186 27.2859C99.0084 27.762 97.7055 28 96.2773 28C94.8491 28 93.5337 27.762 92.331 27.2859C91.1534 26.7848 90.1261 26.1083 89.2491 25.2564C88.3972 24.3794 87.7207 23.3396 87.2196 22.1369C86.7435 20.9342 86.5055 19.6188 86.5055 18.1906C86.5055 16.7624 86.7435 15.447 87.2196 14.2443C87.7207 13.0416 88.3972 12.0143 89.2491 11.1624C90.1261 10.2855 91.1534 9.60895 92.331 9.13289C93.5337 8.63177 94.8491 8.38121 96.2773 8.38121ZM96.2773 23.4523C96.9037 23.4523 97.505 23.3396 98.0813 23.1141C98.6827 22.8635 99.2088 22.5127 99.6599 22.0617C100.111 21.6107 100.462 21.0595 100.712 20.4081C100.988 19.7566 101.126 19.0174 101.126 18.1906C101.126 17.3638 100.988 16.6246 100.712 15.9732C100.462 15.3217 100.111 14.7705 99.6599 14.3195C99.2088 13.8685 98.6827 13.5302 98.0813 13.3047C97.505 13.0541 96.9037 12.9289 96.2773 12.9289C95.6258 12.9289 95.012 13.0541 94.4357 13.3047C93.8594 13.5302 93.3458 13.8685 92.8947 14.3195C92.4437 14.7705 92.0804 15.3217 91.8048 15.9732C91.5543 16.6246 91.429 17.3638 91.429 18.1906C91.429 19.0174 91.5543 19.7566 91.8048 20.4081C92.0804 21.0595 92.4437 21.6107 92.8947 22.0617C93.3458 22.5127 93.8594 22.8635 94.4357 23.1141C95.012 23.3396 95.6258 23.4523 96.2773 23.4523Z" fill="#0288D1"/>
</svg>
